<svg width="96" height="30" viewBox="0 0 96 30" fill="none" xmlns="http://www.w3.org/2000/svg">
<path fill-rule="evenodd" clip-rule="evenodd" d="M59.8527 22.7718C54.295 27.242 46.237 29.6196 39.2987 29.6196C29.574 29.6196 20.8175 25.7022 14.1902 19.1805C13.67 18.6684 14.1341 17.9686 14.7595 18.3654C21.9093 22.8999 30.7505 25.6308 39.8824 25.6308C46.0426 25.6308 52.8143 24.2374 59.045 21.3572C59.9847 20.9224 60.7725 22.0321 59.8527 22.7718Z" fill="#787878"/>
<path fill-rule="evenodd" clip-rule="evenodd" d="M62.5079 20.6408C61.7795 19.773 57.6949 20.2295 55.8603 20.4337C55.3045 20.4958 55.2182 20.0445 55.7193 19.7167C58.9774 17.5868 64.316 18.202 64.9365 18.9145C65.5621 19.6341 64.7731 24.6158 61.7193 26.9932C61.2495 27.359 60.803 27.1641 61.0111 26.6807C61.698 25.0841 63.2364 21.5086 62.5079 20.6408Z" fill="#787878"/>
<path fill-rule="evenodd" clip-rule="evenodd" d="M55.1551 3.97414V1.75514C55.1565 1.4174 55.4162 1.19224 55.7287 1.19292L65.8697 1.19189C66.1938 1.19189 66.4541 1.42358 66.4548 1.75239L66.4541 3.65562C66.4517 3.97483 66.1777 4.39152 65.6905 5.05258L60.4377 12.4084C62.3877 12.3638 64.4503 12.6497 66.2221 13.6265C66.6214 13.8466 66.7285 14.1733 66.76 14.4929V16.8605C66.76 17.1869 66.396 17.5645 66.0135 17.3681C62.8919 15.7645 58.7499 15.5892 55.2986 17.3874C54.9459 17.5717 54.5767 17.1996 54.5767 16.8732V14.6223C54.5767 14.2622 54.5837 13.6461 54.9539 13.0969L61.04 4.53396L55.741 4.53293C55.4173 4.53293 55.1572 4.30639 55.1551 3.97414Z" fill="#787878"/>
<path fill-rule="evenodd" clip-rule="evenodd" d="M20.6258 17.4363H17.732C17.4566 17.4182 17.2363 17.2104 17.2144 16.9456L17.2163 2.04265C17.2163 1.74457 17.4661 1.50611 17.7747 1.50611L20.4698 1.50545C20.7518 1.51995 20.9783 1.73403 20.996 2.00576V3.95167H21.0502C21.7527 2.06999 23.0763 1.19189 24.8591 1.19189C26.6692 1.19189 27.8037 2.06999 28.6142 3.95167C29.3164 2.06999 30.9102 1.19189 32.6122 1.19189C33.8278 1.19189 35.1514 1.69352 35.9619 2.8226C36.8804 4.07683 36.6917 5.89593 36.6917 7.49535L36.6894 16.8998C36.6894 17.1975 36.4392 17.4363 36.1313 17.4363H33.2406C32.95 17.4176 32.7209 17.1867 32.7209 16.9011L32.7202 9.00056C32.7202 8.37344 32.7744 6.80532 32.6392 6.20949C32.4232 5.20591 31.7748 4.92364 30.9374 4.92364C30.2352 4.92364 29.5055 5.39398 29.2084 6.14691C28.9113 6.89952 28.9386 8.15375 28.9386 9.00056V16.8998C28.9386 17.1975 28.6884 17.4363 28.3802 17.4363H25.4897C25.1992 17.4176 24.9701 17.1867 24.9701 16.9011L24.9671 9.00056C24.9671 7.33857 25.2373 4.89235 23.1843 4.89235C21.104 4.89235 21.1851 7.27566 21.1851 9.00056L21.1841 16.8998C21.1845 17.1975 20.9343 17.4363 20.6258 17.4363Z" fill="#787878"/>
<path fill-rule="evenodd" clip-rule="evenodd" d="M75.6678 3.51348C73.555 3.51348 73.4215 6.51747 73.4215 8.39098C73.4215 10.2648 73.3948 14.2707 75.6411 14.2707C77.8608 14.2707 77.9674 11.0401 77.9674 9.06954C77.9674 7.77756 77.9141 6.22705 77.5398 4.99919C77.2184 3.93317 76.5766 3.51348 75.6678 3.51348ZM75.6411 0.379883C79.893 0.379883 82.1922 4.1917 82.1922 9.03731C82.1922 13.7211 79.6525 17.4366 75.6411 17.4366C71.4696 17.4366 69.1967 13.6244 69.1967 8.87582C69.1967 4.09467 71.4962 0.379883 75.6411 0.379883Z" fill="#787878"/>
<path fill-rule="evenodd" clip-rule="evenodd" d="M87.3089 17.4363H84.3537C84.0566 17.4176 83.8214 17.1867 83.8214 16.9011L83.8167 1.99259C83.8415 1.7202 84.0875 1.50611 84.3863 1.50611L87.138 1.50545C87.3967 1.5183 87.6104 1.69155 87.6649 1.92276V4.20232H87.7207C88.5515 2.16386 89.714 1.19189 91.7631 1.19189C93.0919 1.19189 94.3937 1.66223 95.2244 2.94809C96 4.13974 96 6.14691 96 7.58922V16.9667C95.9663 17.2311 95.7244 17.4363 95.4313 17.4363H92.4576C92.183 17.4189 91.9616 17.2216 91.9293 16.9667V8.87507C91.9293 7.24437 92.1231 4.86106 90.074 4.86106C89.354 4.86106 88.6894 5.3314 88.3577 6.05271C87.9425 6.9621 87.8866 7.87148 87.8866 8.87507V16.8998C87.8812 17.1975 87.6248 17.4363 87.3089 17.4363Z" fill="#787878"/>
<path fill-rule="evenodd" clip-rule="evenodd" d="M51.2366 17.0376C51.0415 17.2125 50.7604 17.2242 50.5406 17.1061C49.5622 16.2921 49.3868 15.9158 48.8522 15.1413C47.2349 16.7901 46.0895 17.2844 43.9954 17.2844C41.5154 17.2844 39.5861 15.7526 39.5861 12.6891C39.5861 10.2955 40.8812 8.6681 42.7277 7.87012C44.3259 7.16779 46.5583 7.04036 48.2667 6.84873V6.46579C48.2667 5.76379 48.3219 4.93403 47.9085 4.32768C47.55 3.78522 46.8613 3.56181 46.2549 3.56181C45.1315 3.56181 44.1327 4.13805 43.8871 5.33236C43.8363 5.5979 43.6425 5.86078 43.3756 5.87416L40.5203 5.56513C40.2794 5.51061 40.0114 5.31697 40.0809 4.94875C40.7372 1.48156 43.8651 0.434082 46.6685 0.434082C48.1013 0.434082 49.9752 0.817021 51.1049 1.90229C52.5381 3.24275 52.4001 5.02968 52.4001 6.97648V11.5701C52.4001 12.9517 52.9738 13.558 53.5121 14.3025C53.7002 14.5707 53.7427 14.8898 53.5024 15.0858C52.9006 15.5904 51.8317 16.5202 51.2433 17.0439L51.2366 17.0376ZM48.2667 9.84869C48.2667 10.9978 48.2941 11.955 47.7154 12.9764C47.2469 13.8062 46.5031 14.3165 45.6761 14.3165C44.5464 14.3165 43.8851 13.4547 43.8851 12.1784C43.8851 9.66742 46.1356 9.21057 48.2667 9.21057V9.84869Z" fill="#787878"/>
<path fill-rule="evenodd" clip-rule="evenodd" d="M12.6202 17.0376C12.425 17.2125 12.1437 17.2242 11.9241 17.1061C10.9454 16.2921 10.7704 15.9158 10.2354 15.1413C8.61882 16.7901 7.47338 17.2844 5.37898 17.2844C2.89864 17.2844 0.969971 15.7526 0.969971 12.6891C0.969971 10.2955 2.26511 8.6681 4.11124 7.87012C5.70978 7.16779 7.94184 7.04036 9.65031 6.84873V6.46579C9.65031 5.76379 9.70545 4.93403 9.29211 4.32768C8.93391 3.78522 8.24458 3.56181 7.63878 3.56181C6.51539 3.56181 5.51597 4.13805 5.27105 5.33236C5.21992 5.5979 5.02646 5.86078 4.75914 5.87416L1.90423 5.56513C1.66298 5.51061 1.39467 5.31697 1.4645 4.94875C2.12042 1.48156 5.24866 0.434082 8.05178 0.434082C9.48491 0.434082 11.3588 0.817021 12.4888 1.90229C13.9217 3.24275 13.784 5.02968 13.784 6.97648V11.5701C13.784 12.9517 14.357 13.558 14.8957 14.3025C15.0835 14.5707 15.1259 14.8898 14.886 15.0858C14.2845 15.5904 13.2149 16.5202 12.6272 17.0439L12.6202 17.0376ZM9.65031 9.84869C9.65031 10.9978 9.67805 11.955 9.09898 12.9764C8.63085 13.8062 7.88671 14.3165 7.06004 14.3165C5.93031 14.3165 5.26871 13.4547 5.26871 12.1784C5.26871 9.66742 7.51949 9.21057 9.65031 9.21057V9.84869Z" fill="#787878"/>
</svg>
