<svg width="137" height="18" viewBox="0 0 137 18" fill="none" xmlns="http://www.w3.org/2000/svg">
<path d="M5.3117 8.3148C5.15995 8.12331 4.87814 8.08076 4.68304 8.22969C4.61801 8.27225 4.57465 8.33608 4.55298 8.3999L0.650995 16.0806C0.542607 16.3146 0.629318 16.5912 0.867772 16.6976C0.932805 16.7189 0.997838 16.7401 1.08455 16.7401H6.52565C6.69907 16.7401 6.87249 16.655 6.93752 16.4848C8.08644 14.1019 7.37107 10.485 5.3117 8.3148Z" fill="#787878"/>
<path d="M8.33997 0.669647C6.30609 3.79935 6.06024 7.75033 7.71416 11.102L10.4186 16.4735C10.508 16.6289 10.6644 16.7399 10.8432 16.7399H16.4531C16.7213 16.7399 16.9448 16.5179 16.9448 16.2516C16.9448 16.185 16.9225 16.0962 16.9001 16.0296C16.9001 16.0296 9.34574 1.02479 9.16693 0.64745C9.05518 0.425485 8.78698 0.336699 8.56347 0.447682C8.45172 0.514271 8.38467 0.580861 8.33997 0.669647Z" fill="#787878"/>
<path fill-rule="evenodd" clip-rule="evenodd" d="M85.7229 13.1837C85.7229 13.188 85.7229 13.1923 85.7229 13.1966L75.4908 7.23883C75.4908 7.22604 75.4907 7.21324 75.4907 7.20042L85.7229 13.1837ZM85.7229 13.1837L85.7449 13.1966C85.7449 15.8199 84.2518 17.6 80.541 17.6C77.9061 17.6 76.5008 16.9676 75.4249 16.4054V13.0092C77.0058 13.9695 78.7844 14.4848 80.5849 14.5082C82.078 14.5082 82.5171 14.0163 82.5171 13.2903C82.5171 12.5407 82.078 12.166 79.9481 11.6975C76.4129 10.9526 75.5019 9.30544 75.4908 7.23883L75.4249 7.20042C75.4249 4.5771 77.2034 2.98438 80.6507 2.98438C82.1658 2.93753 83.6589 3.26545 85.0422 3.9447V7.22384C83.615 6.52117 82.0999 6.0293 80.5629 6.0293C79.2894 6.0293 78.6087 6.38063 78.6087 7.20042C78.6087 7.83282 79.0918 8.30127 81.0021 8.7463C84.4873 9.54129 85.7187 10.7097 85.7229 13.1837Z" fill="#787878"/>
<path d="M124.445 2.97998V16.74H127.386V6.25509L128.618 9.02983L132.791 16.74H136.485V2.97998H133.543V11.8728L132.426 9.28001L129.074 2.97998H124.445Z" fill="#787878"/>
<rect x="102.085" y="2.97998" width="3.44" height="13.76" fill="#787878"/>
<path d="M99.5048 13.1966C99.5048 10.7138 98.1784 9.54266 94.4122 8.7463C92.3515 8.30127 91.8304 7.83282 91.8304 7.20042C91.8304 6.38063 92.5647 6.0293 93.9385 6.0293C95.5966 6.0293 97.2309 6.52117 98.7705 7.22384V3.9447C97.2783 3.26545 95.6676 2.93753 94.0333 2.98438C90.3145 2.98438 88.3959 4.5771 88.3959 7.20042C88.3959 9.28501 89.367 10.948 93.2042 11.6975C95.5018 12.166 95.9755 12.5407 95.9755 13.2903C95.9755 14.0163 95.5018 14.5082 93.8911 14.5082C91.9489 14.4848 90.0303 13.9695 88.3248 13.0092V16.4054C89.4855 16.9676 91.0014 17.6 93.8438 17.6C97.9178 17.5766 99.5048 15.8199 99.5048 13.1966Z" fill="#787878"/>
<path d="M50.4849 2.97998V16.74H57.1852L58.2249 13.7605H53.7657V2.97998H50.4849Z" fill="#787878"/>
<path d="M37.5848 2.97998V5.95942H41.0617V16.74H44.2065V5.95942H47.9048V2.97998H37.5848Z" fill="#787878"/>
<path fill-rule="evenodd" clip-rule="evenodd" d="M28.6001 2.97998H32.8096L37.5848 16.74H33.9411L33.2622 14.4201C31.5875 14.9205 29.8222 14.9205 28.1475 14.4201L27.4685 16.74H23.8248L28.6001 2.97998ZM28.9396 11.6909C29.528 11.8501 30.1164 11.941 30.7048 11.941C31.2933 11.941 31.8817 11.8728 32.4701 11.6909L30.7048 5.68649L28.9396 11.6909Z" fill="#787878"/>
<path fill-rule="evenodd" clip-rule="evenodd" d="M63.8601 2.97998H68.0696L72.8448 16.74H69.2012L68.5222 14.4201C66.8475 14.9205 65.0822 14.9205 63.4075 14.4201L62.7285 16.74H59.0848L63.8601 2.97998ZM64.1996 11.6909C64.788 11.8501 65.3764 11.941 65.9648 11.941C66.5533 11.941 67.1417 11.8728 67.7301 11.6909L65.9648 5.68649L64.1996 11.6909Z" fill="#787878"/>
<path fill-rule="evenodd" clip-rule="evenodd" d="M112.88 2.97998H117.09L121.865 16.74H118.221L117.542 14.4201C115.867 14.9205 114.102 14.9205 112.427 14.4201L111.749 16.74H108.105L112.88 2.97998ZM113.22 11.6909C113.808 11.8501 114.396 11.941 114.985 11.941C115.573 11.941 116.162 11.8728 116.75 11.6909L114.985 5.68649L113.22 11.6909Z" fill="#787878"/>
</svg>
