<svg width="29" height="29" viewBox="0 0 29 29" fill="none" xmlns="http://www.w3.org/2000/svg">
<path opacity="0.9" d="M4.27663 28.6242C2.83663 26.2542 1.86163 23.7792 1.35163 21.1992C0.841626 18.6192 0.796626 16.0842 1.21663 13.5942C1.63663 11.1042 2.50663 8.7192 3.82663 6.4392C5.17663 4.1292 6.97663 2.0592 9.22663 0.229196L12.6916 2.34419C13.2916 2.73419 13.5616 3.21419 13.5016 3.7842C13.4416 4.3542 13.2466 4.8042 12.9166 5.13419C12.2866 5.88419 11.6866 6.87419 11.1166 8.10419C10.5466 9.33419 10.1416 10.7142 9.90163 12.2442C9.69163 13.7742 9.72163 15.4092 9.99163 17.1492C10.2616 18.8892 10.9366 20.6292 12.0166 22.3692C12.5566 23.2392 12.7066 24.0042 12.4666 24.6642C12.2266 25.2942 11.7316 25.7442 10.9816 26.0142L4.27663 28.6242ZM19.2166 28.6242C17.7766 26.2542 16.8016 23.7792 16.2916 21.1992C15.7816 18.6192 15.7366 16.0842 16.1566 13.5942C16.5766 11.1042 17.4466 8.7192 18.7666 6.4392C20.1166 4.1292 21.9166 2.0592 24.1666 0.229196L27.6316 2.34419C28.2316 2.73419 28.5016 3.21419 28.4416 3.7842C28.3816 4.3542 28.1866 4.8042 27.8566 5.13419C27.2266 5.88419 26.6266 6.87419 26.0566 8.10419C25.4866 9.33419 25.0816 10.7142 24.8416 12.2442C24.6316 13.7742 24.6616 15.4092 24.9316 17.1492C25.2016 18.8892 25.8766 20.6292 26.9566 22.3692C27.4966 23.2392 27.6466 24.0042 27.4066 24.6642C27.1666 25.2942 26.6716 25.7442 25.9216 26.0142L19.2166 28.6242Z" fill="#F0B73F"/>
</svg>
